<svg id="wave" style="transform:rotate(0deg); transition: 0.3s" viewBox="0 0 1440 490" version="1.1" xmlns="http://www.w3.org/2000/svg"><defs><linearGradient id="sw-gradient-0" x1="0" x2="0" y1="1" y2="0"><stop stop-color="rgba(62, 178.613, 243, 1)" offset="0%"></stop><stop stop-color="rgba(11, 110.336, 255, 1)" offset="100%"></stop></linearGradient></defs><path style="transform:translate(0, 0px); opacity:1" fill="url(#sw-gradient-0)" d="M0,441L40,400.2C80,359,160,278,240,204.2C320,131,400,65,480,57.2C560,49,640,98,720,138.8C800,180,880,212,960,212.3C1040,212,1120,180,1200,163.3C1280,147,1360,147,1440,196C1520,245,1600,343,1680,351.2C1760,359,1840,278,1920,204.2C2000,131,2080,65,2160,89.8C2240,114,2320,229,2400,253.2C2480,278,2560,212,2640,163.3C2720,114,2800,82,2880,106.2C2960,131,3040,212,3120,245C3200,278,3280,261,3360,277.7C3440,294,3520,343,3600,334.8C3680,327,3760,261,3840,212.3C3920,163,4000,131,4080,106.2C4160,82,4240,65,4320,73.5C4400,82,4480,114,4560,138.8C4640,163,4720,180,4800,171.5C4880,163,4960,131,5040,147C5120,163,5200,229,5280,228.7C5360,229,5440,163,5520,114.3C5600,65,5680,33,5720,16.3L5760,0L5760,490L5720,490C5680,490,5600,490,5520,490C5440,490,5360,490,5280,490C5200,490,5120,490,5040,490C4960,490,4880,490,4800,490C4720,490,4640,490,4560,490C4480,490,4400,490,4320,490C4240,490,4160,490,4080,490C4000,490,3920,490,3840,490C3760,490,3680,490,3600,490C3520,490,3440,490,3360,490C3280,490,3200,490,3120,490C3040,490,2960,490,2880,490C2800,490,2720,490,2640,490C2560,490,2480,490,2400,490C2320,490,2240,490,2160,490C2080,490,2000,490,1920,490C1840,490,1760,490,1680,490C1600,490,1520,490,1440,490C1360,490,1280,490,1200,490C1120,490,1040,490,960,490C880,490,800,490,720,490C640,490,560,490,480,490C400,490,320,490,240,490C160,490,80,490,40,490L0,490Z"></path><defs><linearGradient id="sw-gradient-1" x1="0" x2="0" y1="1" y2="0"><stop stop-color="rgba(62, 233.802, 243, 1)" offset="0%"></stop><stop stop-color="rgba(46.91, 160.526, 243.986, 1)" offset="100%"></stop></linearGradient></defs><path style="transform:translate(0, 50px); opacity:0.9" fill="url(#sw-gradient-1)" d="M0,49L40,98C80,147,160,245,240,269.5C320,294,400,245,480,220.5C560,196,640,196,720,204.2C800,212,880,229,960,269.5C1040,310,1120,376,1200,343C1280,310,1360,180,1440,138.8C1520,98,1600,147,1680,147C1760,147,1840,98,1920,98C2000,98,2080,147,2160,187.8C2240,229,2320,261,2400,228.7C2480,196,2560,98,2640,73.5C2720,49,2800,98,2880,114.3C2960,131,3040,114,3120,155.2C3200,196,3280,294,3360,294C3440,294,3520,196,3600,196C3680,196,3760,294,3840,302.2C3920,310,4000,229,4080,187.8C4160,147,4240,147,4320,138.8C4400,131,4480,114,4560,138.8C4640,163,4720,229,4800,245C4880,261,4960,229,5040,253.2C5120,278,5200,359,5280,334.8C5360,310,5440,180,5520,155.2C5600,131,5680,212,5720,253.2L5760,294L5760,490L5720,490C5680,490,5600,490,5520,490C5440,490,5360,490,5280,490C5200,490,5120,490,5040,490C4960,490,4880,490,4800,490C4720,490,4640,490,4560,490C4480,490,4400,490,4320,490C4240,490,4160,490,4080,490C4000,490,3920,490,3840,490C3760,490,3680,490,3600,490C3520,490,3440,490,3360,490C3280,490,3200,490,3120,490C3040,490,2960,490,2880,490C2800,490,2720,490,2640,490C2560,490,2480,490,2400,490C2320,490,2240,490,2160,490C2080,490,2000,490,1920,490C1840,490,1760,490,1680,490C1600,490,1520,490,1440,490C1360,490,1280,490,1200,490C1120,490,1040,490,960,490C880,490,800,490,720,490C640,490,560,490,480,490C400,490,320,490,240,490C160,490,80,490,40,490L0,490Z"></path><defs><linearGradient id="sw-gradient-2" x1="0" x2="0" y1="1" y2="0"><stop stop-color="rgba(62, 147.952, 243, 0.38)" offset="0%"></stop><stop stop-color="rgba(11, 44.204, 255, 1)" offset="100%"></stop></linearGradient></defs><path style="transform:translate(0, 100px); opacity:0.8" fill="url(#sw-gradient-2)" d="M0,196L40,204.2C80,212,160,229,240,228.7C320,229,400,212,480,212.3C560,212,640,229,720,228.7C800,229,880,212,960,171.5C1040,131,1120,65,1200,32.7C1280,0,1360,0,1440,32.7C1520,65,1600,131,1680,179.7C1760,229,1840,261,1920,269.5C2000,278,2080,261,2160,277.7C2240,294,2320,343,2400,375.7C2480,408,2560,425,2640,367.5C2720,310,2800,180,2880,171.5C2960,163,3040,278,3120,285.8C3200,294,3280,196,3360,155.2C3440,114,3520,131,3600,130.7C3680,131,3760,114,3840,138.8C3920,163,4000,229,4080,228.7C4160,229,4240,163,4320,163.3C4400,163,4480,229,4560,236.8C4640,245,4720,196,4800,179.7C4880,163,4960,180,5040,204.2C5120,229,5200,261,5280,253.2C5360,245,5440,196,5520,155.2C5600,114,5680,82,5720,65.3L5760,49L5760,490L5720,490C5680,490,5600,490,5520,490C5440,490,5360,490,5280,490C5200,490,5120,490,5040,490C4960,490,4880,490,4800,490C4720,490,4640,490,4560,490C4480,490,4400,490,4320,490C4240,490,4160,490,4080,490C4000,490,3920,490,3840,490C3760,490,3680,490,3600,490C3520,490,3440,490,3360,490C3280,490,3200,490,3120,490C3040,490,2960,490,2880,490C2800,490,2720,490,2640,490C2560,490,2480,490,2400,490C2320,490,2240,490,2160,490C2080,490,2000,490,1920,490C1840,490,1760,490,1680,490C1600,490,1520,490,1440,490C1360,490,1280,490,1200,490C1120,490,1040,490,960,490C880,490,800,490,720,490C640,490,560,490,480,490C400,490,320,490,240,490C160,490,80,490,40,490L0,490Z"></path></svg>
